# xmcd
# Track frame offsets:
# 150
# 22596
# 51868
# 68154
# 90819
# 106666
# 122055
# 146382
# 169943
# 196981
# 223396
# 241301
# 257946
# 277579
# 296071
# 324050
#
# Disc length: 4616 seconds
# Revision: 0
# Processed by: cddbd v1.5.2PL0 Copyright (c) Steve Scherf et al.
# Submitted via: VisiTrax 2.10.3.257 - For more info visit www.synapsa.com
#
DISCID=d8120610
DTITLE=Jerry Butler - Spice Of Life
DYEAR=1972
DGENRE=Soul
TTITLE0=What's So Good About It (You're My Baby)
TTITLE1=If I Could Remember (Not Ever Having You)
TTITLE2=I Only Have Eyes For You
TTITLE3=That's The Way It Was (That's The Way It Is)
TTITLE4=One Night Affair
TTITLE5=A Prayer
TTITLE6=Get On The Case
TTITLE7=So Far Away
TTITLE8=I Need You
TTITLE9=You Can't Always Tell
TTITLE10=Stop Steppin' On My Dreams
TTITLE11=Baby I'm A Want You
TTITLE12=(They Long To Be) Close To You
TTITLE13=Don't Rip Me Off
TTITLE14=The Masquerade Is Over/Since I Fell For You
TTITLE15=All Kinds Of People
EXTD=
EXTT0=
EXTT1=
EXTT2=
EXTT3=
EXTT4=
EXTT5=
EXTT6=
EXTT7=
EXTT8=
EXTT9=
EXTT10=
EXTT11=
EXTT12=
EXTT13=
EXTT14=
EXTT15=
PLAYORDER=
